<svg width="32" height="32" viewBox="0 0 32 32" fill="none" xmlns="http://www.w3.org/2000/svg">
<g id="Group 16">
<circle id="Ellipse 6" cx="16" cy="16" r="16" fill="#BA7061"/>
<path id="Vector" d="M24.5572 15.0406V15.6805C24.5572 16.7755 24.3421 17.8598 23.9242 18.8711C23.5063 19.8824 22.8939 20.8008 22.122 21.5737C21.3502 22.3467 20.4341 22.9588 19.4262 23.3752C18.4184 23.7915 17.3388 24.0038 16.2491 23.9999C11.9506 23.9847 8.44816 20.6354 8.0406 16.4181C8.03618 16.3631 8.04596 16.308 8.06898 16.258C8.09201 16.2079 8.1275 16.1647 8.17202 16.1326C8.21654 16.1004 8.26858 16.0803 8.3231 16.0742C8.37761 16.0682 8.43276 16.0764 8.48318 16.0981C9.05596 16.3397 9.69144 16.3874 10.2936 16.234C10.8957 16.0806 11.4318 15.7344 11.8209 15.2478C12.0758 15.5663 12.3954 15.8266 12.7584 16.0111C13.1214 16.1957 13.5193 16.3002 13.9257 16.3179C14.3322 16.3355 14.7376 16.2658 15.1151 16.1134C15.4925 15.961 15.8333 15.7294 16.1146 15.4341C16.3724 15.855 16.7229 16.2108 17.1391 16.4741C16.6734 16.8321 16.2961 17.2932 16.0364 17.8214C15.7767 18.3497 15.6417 18.931 15.6418 19.5203C15.6415 19.609 15.6595 19.6968 15.6948 19.7782C15.7301 19.8596 15.7818 19.9326 15.8467 19.9928C15.9116 20.053 15.9883 20.099 16.0718 20.1278C16.1553 20.1566 16.2439 20.1676 16.3319 20.1602C16.4935 20.1427 16.6428 20.0653 16.7507 19.9432C16.8586 19.821 16.9173 19.6628 16.9154 19.4995C16.9209 18.8242 17.1916 18.1784 17.6687 17.7028C18.1459 17.2273 18.7906 16.9604 19.4626 16.9604C19.5499 16.9606 19.6364 16.9428 19.7165 16.908C19.7966 16.8732 19.8688 16.8223 19.9285 16.7583C19.9883 16.6943 20.0343 16.6186 20.0637 16.536C20.0931 16.4534 20.1052 16.3656 20.0995 16.2781C20.0852 16.1136 20.0096 15.9606 19.8878 15.8498C19.766 15.7389 19.607 15.6785 19.4427 15.6805H18.8258C18.3192 15.6805 17.8332 15.4783 17.4749 15.1182C17.1167 14.7582 16.9154 14.2698 16.9154 13.7607V12.4808H22.0099C22.6855 12.4808 23.3334 12.7504 23.8111 13.2305C24.2888 13.7106 24.5572 14.3617 24.5572 15.0406ZM9.65014 15.0406C10.513 15.0086 11.1841 14.2702 11.1841 13.4023V11.5624C11.1841 10.6913 10.513 9.95293 9.65014 9.92093C9.43624 9.91308 9.22295 9.94866 9.02304 10.0255C8.82313 10.1024 8.64069 10.219 8.48665 10.3684C8.33261 10.5177 8.21011 10.6968 8.1265 10.8948C8.04288 11.0928 7.99986 11.3057 8 11.5208V13.4407C7.99986 13.6558 8.04288 13.8687 8.1265 14.0667C8.21011 14.2647 8.33261 14.4438 8.48665 14.5931C8.64069 14.7425 8.82313 14.8591 9.02304 14.936C9.22295 15.0128 9.43624 15.0484 9.65014 15.0406ZM14.1078 15.0406C14.9707 15.0094 15.6418 14.271 15.6418 13.4031V9.64335C15.6418 8.77541 14.9707 8.03706 14.1078 8.00587C13.8943 7.99803 13.6814 8.03346 13.4818 8.11004C13.2823 8.18663 13.1 8.3028 12.9461 8.45164C12.7921 8.60048 12.6695 8.77894 12.5856 8.97639C12.5017 9.17385 12.4582 9.38625 12.4577 9.60095V13.4407C12.4576 13.6558 12.5006 13.8687 12.5842 14.0667C12.6678 14.2647 12.7903 14.4438 12.9443 14.5931C13.0984 14.7425 13.2808 14.8591 13.4807 14.936C13.6806 15.0128 13.8939 15.0484 14.1078 15.0406ZM20.0995 9.60095C20.0996 9.38585 20.0566 9.17292 19.973 8.97491C19.8893 8.77689 19.7669 8.59786 19.6128 8.44851C19.4588 8.29915 19.2763 8.18255 19.0764 8.10567C18.8765 8.02879 18.6632 7.99321 18.4493 8.00107C17.5864 8.03306 16.9154 8.77141 16.9154 9.63935V11.2008H19.7811C19.8655 11.2008 19.9465 11.1671 20.0062 11.1071C20.0659 11.0471 20.0995 10.9657 20.0995 10.8809V9.60095Z" fill="white"/>
</g>
</svg>
