<svg width="32" height="32" viewBox="0 0 32 32" fill="none" xmlns="http://www.w3.org/2000/svg">
<g id="Group 3">
<circle id="Ellipse 6" cx="16" cy="16" r="16" fill="#A2D589"/>
<path id="Vector" d="M12.4043 8.16787V8.17015L12.4077 8.17244L12.4169 8.18158L12.45 8.21587C12.4774 8.24444 12.5186 8.28672 12.5677 8.34157C12.6683 8.44899 12.81 8.60784 12.9814 8.81126C13.3242 9.21923 13.7848 9.80891 14.2647 10.5471C14.8796 11.4922 15.5332 12.6933 15.9995 14.0692C16.4669 12.6933 17.1194 11.4922 17.7342 10.5471C18.1265 9.94309 18.5551 9.3634 19.0176 8.81126C19.1888 8.60756 19.366 8.409 19.549 8.21587L19.5821 8.18158L19.5913 8.17244L19.5935 8.17015C19.6735 8.09027 19.7754 8.03472 19.8863 8.01264C19.9972 7.99056 20.1121 8.0018 20.2166 8.04494C20.3211 8.08809 20.4105 8.1612 20.4735 8.25507C20.5365 8.34894 20.5703 8.45936 20.5706 8.57241V14.4075C20.8575 13.8109 21.1706 13.3253 21.478 12.9333C21.9077 12.387 22.3237 12.0282 22.6414 11.8019C22.8043 11.6865 22.9762 11.5845 23.1556 11.4968L23.1933 11.4797L23.2059 11.4739L23.2116 11.4717H23.2139L23.215 11.4705C23.3017 11.4358 23.3956 11.4228 23.4885 11.4328C23.5813 11.4427 23.6704 11.4753 23.7477 11.5276C23.8251 11.5799 23.8884 11.6504 23.9322 11.7329C23.976 11.8154 23.999 11.9074 23.999 12.0008V20.5716C23.999 21.4809 23.6378 22.3529 22.9948 22.9959C22.3519 23.6388 21.4799 24 20.5706 24H11.4284C10.5191 24 9.64708 23.6388 9.00414 22.9959C8.3612 22.3529 8 21.4809 8 20.5716V12.0008C8.00002 11.9074 8.02294 11.8154 8.06674 11.7329C8.11054 11.6504 8.1739 11.5799 8.25126 11.5276C8.32863 11.4753 8.41764 11.4427 8.5105 11.4328C8.60337 11.4228 8.69726 11.4358 8.78395 11.4705L8.78738 11.4717L8.79309 11.4739L8.80566 11.4797C8.86045 11.5024 8.91387 11.5284 8.96565 11.5574C9.06393 11.6099 9.19878 11.6899 9.35763 11.8031C9.67646 12.0282 10.0913 12.387 10.521 12.9344C10.8295 13.3253 11.1415 13.8109 11.4284 14.4086V8.57241C11.4281 8.45926 11.4616 8.34858 11.5243 8.25443C11.5871 8.16028 11.6764 8.08688 11.7809 8.04355C11.8855 8.00022 12.0005 7.9889 12.1115 8.01104C12.2225 8.03317 12.3244 8.08775 12.4043 8.16787Z" fill="white"/>
</g>
</svg>
