<svg width="32" height="32" viewBox="0 0 32 32" fill="none" xmlns="http://www.w3.org/2000/svg">
<g id="Frame 78">
<circle id="Ellipse 7" cx="16" cy="16" r="16" fill="white"/>
<path id="Vector" d="M17.2532 7.00008C16.9272 6.99884 16.6088 7.01156 16.3014 7.03662C8.72544 7.03662 9.33038 14.4892 16.3014 15.566C23.2725 16.6428 21.4902 22.771 16.6753 22.771C13.499 22.771 11.3595 22.0204 9.84309 20.3497C8.25556 18.6008 9.37148 16.5909 11.5143 18.3895C13.6665 20.196 15.3004 21.5437 17.9986 19.4463C14.6193 20.5671 13.2951 17.8336 10.8915 16.3562C8.61244 14.9554 5.68194 17.8185 7.64582 20.9323C9.28385 23.5294 13.4093 25 16.8298 25C25.1571 25 26.6169 14.7611 19.211 13.6047C16.5964 13.1964 14.7057 12.7216 13.7881 11.2683C13.1157 10.203 15.0212 8.02848 17.4738 9.01559C17.8287 9.61001 17.9975 10.3583 18.054 11.4865L21.2054 12.9784L21.3269 12.7731L21.3293 12.7779C21.6514 12.6084 21.8936 12.2247 22.1183 11.7955C21.706 11.9719 21.2464 11.9644 20.8091 11.8509C20.7028 11.7815 20.6009 11.7059 20.5037 11.6244C19.6208 10.8853 19.4191 9.88918 20.0531 9.39885C20.5224 9.03597 21.3182 9.05201 22.0581 9.38474C22.3828 10.0669 22.4243 10.7157 22.4803 11.3661C22.8668 10.8369 23.073 10.2545 23.1809 9.64304L23.5855 8.96132C21.7771 7.57782 19.3571 7.00774 17.2531 7.00008H17.2532ZM18.869 7.83265C19.3838 7.86125 19.9448 7.89397 20.4435 8.18767L20.0861 8.79628C19.7772 8.6143 19.3328 8.56467 18.8301 8.53678L18.869 7.83265Z" fill="#4F365F"/>
</g>
</svg>
