<svg width="32" height="32" viewBox="0 0 32 32" fill="none" xmlns="http://www.w3.org/2000/svg">
<g id="Frame 79">
<circle id="Ellipse 7" cx="16" cy="16" r="16" fill="white"/>
<path id="Vector" d="M17.6248 7.0001C17.0325 7.00529 16.4319 7.15445 15.8572 7.46772C17.1831 7.37141 18.3486 7.77769 18.6738 8.75345C13.7919 8.11502 8.81422 13.0473 17.472 18.0423C19.8211 19.3976 18.2063 22.8838 13.5203 20.8873C7.27489 18.2264 7.7286 13.2813 9.97797 10.6938C10.2554 11.1609 10.4863 11.6862 10.6954 12.2376C11.4177 10.3966 12.8316 9.63799 14.2412 8.87302C12.2637 7.94181 10.3766 8.31297 8.52414 9.19148C8.9167 9.40909 9.24789 9.70304 9.53396 10.0522C5.23183 12.6252 6.58754 20.6751 12.2392 23.9382C19.4317 28.0907 27.9533 18.9283 20.1252 15.9421C14.388 13.7535 15.8932 10.6418 18.6844 11.1627L18.7838 12.7775L24.1386 14.2693L24.9307 11.9713C23.8343 11.4972 22.9528 10.9644 22.2374 10.3103C22.2854 9.24027 21.8335 8.16961 20.9528 7.09955C20.9815 7.6221 20.9756 8.14449 20.8925 8.66708C20.0511 7.60312 18.8568 6.98927 17.6249 7.00014L17.6248 7.0001ZM19.2704 9.47679C20.1418 9.75213 20.9647 10.2673 21.6193 11.1473C20.3414 11.7466 19.0005 10.9457 19.2704 9.47683V9.47679Z" fill="#4F365F"/>
</g>
</svg>
