<svg width="32" height="32" viewBox="0 0 32 32" fill="none" xmlns="http://www.w3.org/2000/svg">
<g id="Group 4">
<circle id="Ellipse 6" cx="16" cy="16" r="16" fill="#9DBCF2"/>
<path id="Vector" d="M12.7724 8.00027C12.023 8.0073 11.4153 8.3105 10.9317 8.80764C10.3612 9.39408 9.98078 10.2645 9.86454 11.2158C9.63209 13.1187 10.4264 15.2881 12.6515 16.1936L12.4128 16.7813C10.2357 15.8954 9.24623 13.9039 9.19507 11.9946C8.60572 12.3634 8.25781 12.9129 8.09706 13.571C7.9026 14.3671 8.00448 15.3207 8.36546 16.2137C9.08735 17.9998 10.7884 19.5019 13.0652 19.1874L13.1522 19.8165C11.4957 20.0453 10.0906 19.4235 9.08151 18.4236C8.80476 18.9741 8.82676 19.5189 9.0592 20.0637C9.34682 20.7378 9.99273 21.3963 10.8542 21.8832C12.4527 22.7866 14.7516 23.0902 16.7338 22.0561C16.5495 21.3435 16.6438 20.5259 17.1189 19.703C17.8899 18.3678 19.1823 18.0114 20.1191 18.3896C20.5875 18.5788 20.9705 18.9516 21.1333 19.4474C21.2961 19.943 21.2296 20.544 20.8829 21.1554C20.4824 21.8619 19.7238 22.1018 19.1431 21.9097C18.8527 21.8137 18.5924 21.5894 18.5023 21.2689C18.4122 20.9484 18.4975 20.5775 18.7421 20.2059L19.2715 20.5549C19.0936 20.825 19.0848 20.999 19.1122 21.097C19.1398 21.195 19.2087 21.2632 19.3414 21.3071C19.607 21.3949 20.0707 21.3019 20.3313 20.8424C20.6093 20.3522 20.6307 19.9535 20.5296 19.6457C20.4286 19.3379 20.1954 19.1041 19.8815 18.9773C19.2537 18.7238 18.3151 18.9002 17.6684 20.0202C17.1923 20.8449 17.1805 21.5607 17.4403 22.1738L17.5358 22.3223C17.5291 22.3268 17.5224 22.3308 17.5157 22.3351C17.5244 22.352 17.5331 22.3693 17.5422 22.386C17.6092 22.5088 17.6866 22.6255 17.7735 22.735C17.7769 22.7394 17.7806 22.7435 17.7841 22.7478C17.7975 22.7645 17.8116 22.7812 17.8255 22.7977C18.2162 23.2613 18.7882 23.6253 19.4317 23.8257C20.2553 24.0823 21.1833 24.0683 21.9725 23.6984C22.7617 23.3285 23.4301 22.613 23.7613 21.3772C23.8741 20.956 23.9337 20.57 23.948 20.2123C23.9483 20.1981 23.9488 20.184 23.949 20.1699C23.952 19.9967 23.946 19.822 23.9299 19.6468C23.9286 19.633 23.927 19.6192 23.9256 19.6054C23.9246 19.5963 23.9236 19.587 23.9225 19.5778C23.8106 18.7023 23.3853 18.0107 22.7565 17.3903C21.7504 16.3976 20.1867 15.6372 18.5893 14.8738C16.9919 14.1104 15.3604 13.3427 14.2142 12.2375C13.1386 11.2003 12.5192 9.82085 12.8456 8.00021C12.8211 7.99987 12.7966 8 12.7724 8.00021V8.00027Z" fill="white"/>
</g>
</svg>
