<svg width="32" height="32" viewBox="0 0 32 32" fill="none" xmlns="http://www.w3.org/2000/svg">
<g id="Frame 76">
<circle id="Ellipse 7" cx="16" cy="16" r="16" fill="white"/>
<path id="Vector" d="M16 25C14.05 25 12.3957 24.3207 11.037 22.962C9.67833 21.6033 8.99933 19.9493 9 18C9 16.7167 9.21267 15.425 9.638 14.125C10.0633 12.825 10.6133 11.6457 11.288 10.587C11.9627 9.529 12.7167 8.66667 13.55 8C14.3833 7.33333 15.2 7 16 7C16.8167 7 17.6377 7.33333 18.463 8C19.2883 8.66667 20.0383 9.52933 20.713 10.588C21.3877 11.646 21.9377 12.825 22.363 14.125C22.7883 15.425 23.0007 16.7167 23 18C23 19.95 22.3207 21.6043 20.962 22.963C19.6033 24.3217 17.9493 25.0007 16 25ZM17 22C17.2833 22 17.521 21.904 17.713 21.712C17.905 21.52 18.0007 21.2827 18 21C18 20.7167 17.904 20.479 17.712 20.287C17.52 20.095 17.2827 19.9993 17 20C16.1667 20 15.4583 19.7083 14.875 19.125C14.2917 18.5417 14 17.8333 14 17C14 16.7167 13.904 16.479 13.712 16.287C13.52 16.095 13.2827 15.9993 13 16C12.7167 16 12.479 16.096 12.287 16.288C12.095 16.48 11.9993 16.7173 12 17C12 18.3833 12.4877 19.5627 13.463 20.538C14.4383 21.5133 15.6173 22.0007 17 22Z" fill="#4F365F"/>
</g>
</svg>
