<svg width="32" height="32" viewBox="0 0 32 32" fill="none" xmlns="http://www.w3.org/2000/svg">
<g id="Group 2">
<circle id="Ellipse 6" cx="16" cy="16" r="16" fill="#FE8972"/>
<path id="Vector" d="M16.6578 8.13692C16.5848 8.07618 16.4982 8.0339 16.4054 8.01364C16.3126 7.99337 16.2162 7.99572 16.1245 8.02049C16.0328 8.04525 15.9484 8.0917 15.8784 8.15592C15.8084 8.22015 15.7548 8.30026 15.7223 8.38951L14.0926 12.8644L12.303 11.1303C12.2429 11.072 12.1711 11.0271 12.0924 10.9985C12.0137 10.97 11.9298 10.9585 11.8463 10.9647C11.7628 10.9709 11.6816 10.9948 11.608 11.0347C11.5344 11.0746 11.4701 11.1296 11.4193 11.1962C9.81482 13.2984 9 15.4133 9 17.4814C9 19.2103 9.68678 20.8683 10.9092 22.0908C12.1317 23.3132 13.7897 24 15.5186 24C17.2474 24 18.9054 23.3132 20.1279 22.0908C21.3504 20.8683 22.0371 19.2103 22.0371 17.4814C22.0371 13.0777 18.2749 9.48137 16.6578 8.13692ZM19.6586 18.1733C19.5049 19.0316 19.092 19.8222 18.4754 20.4387C17.8587 21.0552 17.068 21.468 16.2097 21.6215C16.1771 21.627 16.1442 21.6298 16.1112 21.6296C15.9625 21.6296 15.8193 21.5737 15.71 21.473C15.6006 21.3723 15.5331 21.2342 15.5208 21.0861C15.5084 20.9379 15.5523 20.7906 15.6435 20.6732C15.7348 20.5559 15.8668 20.4771 16.0134 20.4526C17.2408 20.2459 18.2823 19.2044 18.4904 17.9748C18.5168 17.8198 18.6036 17.6816 18.7318 17.5906C18.86 17.4996 19.0191 17.4633 19.1742 17.4896C19.3292 17.5159 19.4674 17.6027 19.5583 17.7309C19.6493 17.8592 19.6857 18.0183 19.6593 18.1733H19.6586Z" fill="white"/>
</g>
</svg>
