<svg width="32" height="32" viewBox="0 0 32 32" fill="none" xmlns="http://www.w3.org/2000/svg">
<g id="Frame 81">
<circle id="Ellipse 7" cx="16" cy="16" r="16" fill="white"/>
<path id="Vector" d="M7 18.7C13.0003 13.3 18.9997 18.7 25 13.3M13.3 25C14.9182 23.2018 15.5662 21.4045 15.8263 19.6063M18.7 7C17.0818 8.7982 16.4338 10.5955 16.1737 12.3937M20.5 10.6L18.25 8.35M17.8 12.4L16.9 11.5M11.5 21.4L13.75 23.65M8.35 18.25L8.8 18.7M23.2 13.3L23.65 13.75M11.05 16.45L11.95 17.35M20.05 14.65L20.95 15.55M14.2 19.6L15.55 20.95" stroke="#4F365F" stroke-width="1.8" stroke-linecap="round" stroke-linejoin="round"/>
</g>
</svg>
