<svg width="32" height="32" viewBox="0 0 32 32" fill="none" xmlns="http://www.w3.org/2000/svg">
<circle cx="16" cy="16" r="16" fill="#B7B7B7"/>
<g clip-path="url(#clip0_23_1644)">
<path d="M15.9999 21.7142C19.1558 21.7142 21.7142 19.1558 21.7142 15.9999C21.7142 12.844 19.1558 10.2856 15.9999 10.2856C12.844 10.2856 10.2856 12.844 10.2856 15.9999C10.2856 19.1558 12.844 21.7142 15.9999 21.7142Z" fill="white"/>
<path d="M16 24C14.4178 24 12.871 23.5308 11.5554 22.6518C10.2398 21.7727 9.21447 20.5233 8.60897 19.0615C8.00347 17.5997 7.84504 15.9911 8.15372 14.4393C8.4624 12.8874 9.22433 11.462 10.3431 10.3431C11.462 9.22433 12.8874 8.4624 14.4393 8.15372C15.9911 7.84504 17.5997 8.00347 19.0615 8.60897C20.5233 9.21447 21.7727 10.2398 22.6518 11.5554C23.5308 12.871 24 14.4178 24 16C23.9976 18.121 23.1539 20.1544 21.6542 21.6542C20.1544 23.1539 18.121 23.9976 16 24ZM16 9.14286C14.6438 9.14286 13.318 9.54502 12.1904 10.2985C11.0627 11.052 10.1838 12.1229 9.66483 13.3759C9.14583 14.6289 9.01003 16.0076 9.27462 17.3378C9.5392 18.6679 10.1923 19.8897 11.1513 20.8487C12.1103 21.8077 13.3321 22.4608 14.6622 22.7254C15.9924 22.99 17.3711 22.8542 18.6241 22.3352C19.8771 21.8162 20.948 20.9373 21.7015 19.8096C22.455 18.682 22.8571 17.3562 22.8571 16C22.855 14.182 22.1319 12.4391 20.8464 11.1536C19.5609 9.8681 17.818 9.14498 16 9.14286Z" fill="white"/>
</g>
<defs>
<clipPath id="clip0_23_1644">
<rect width="16" height="16" fill="white" transform="translate(8 8)"/>
</clipPath>
</defs>
</svg>
