<svg width="32" height="32" viewBox="0 0 32 32" fill="none" xmlns="http://www.w3.org/2000/svg">
<circle cx="16" cy="16" r="16" fill="white"/>
<path d="M18.6516 7.8721C17.901 7.3546 17.0604 7 16.2 7C15.2586 7 14.3406 7.4248 13.5387 8.0224C12.726 8.6281 11.9574 9.4651 11.2959 10.4272C9.9792 12.3424 9 14.8795 9 17.35C9 19.5784 9.7461 21.4972 11.0484 22.8643C12.3525 24.2332 14.166 25 16.2 25C18.2331 25 20.0475 24.2332 21.3516 22.8643C22.6539 21.4963 23.4 19.5793 23.4 17.35C23.4 14.8795 22.4208 12.3424 21.1041 10.4272C20.7732 9.9435 20.4065 9.48531 20.007 9.0565L16.8354 12.8635L18.2844 13.3459C18.3966 13.3832 18.5003 13.4423 18.5896 13.5197C18.679 13.5971 18.7522 13.6914 18.8051 13.7971C18.858 13.9028 18.8896 14.018 18.898 14.1359C18.9064 14.2538 18.8915 14.3722 18.8541 14.4844L17.9541 17.1844C17.8787 17.4109 17.7163 17.5982 17.5028 17.705C17.2893 17.8119 17.0421 17.8295 16.8156 17.7541C16.5891 17.6787 16.4018 17.5163 16.295 17.3028C16.1881 17.0893 16.1705 16.8421 16.2459 16.6156L16.8615 14.7697L15.0156 14.1541C14.8764 14.1078 14.7507 14.0283 14.6493 13.9223C14.5479 13.8164 14.4739 13.6872 14.4338 13.5462C14.3937 13.4051 14.3887 13.2564 14.4192 13.1129C14.4497 12.9695 14.5148 12.8357 14.6088 12.7231L18.6516 7.8721Z" fill="#4F365F"/>
</svg>
