<svg width="32" height="32" viewBox="0 0 32 32" fill="none" xmlns="http://www.w3.org/2000/svg">
<g id="Frame 80">
<circle id="Ellipse 7" cx="16" cy="16" r="16" fill="white"/>
<path id="Vector" d="M19.8331 6.00019C19.3493 6.00386 18.845 6.05067 18.3069 6.16276C19.7228 6.45891 20.6127 7.08639 21.091 7.8211C20.4367 7.70918 19.7955 7.63201 19.1684 7.58719L18.3704 6.84982L17.5552 7.54487C17.2365 7.55193 16.9218 7.56812 16.6117 7.59374L15.367 6.90927L14.7367 7.87391C14.3973 7.94811 14.0609 8.03584 13.7285 8.13691L12.4824 7.50394L12.0041 8.80413C11.6327 8.9816 11.2722 9.1791 10.9219 9.39343L9.5398 9.16891L9.51992 10.3964C9.25115 10.6201 8.99195 10.855 8.74302 11.1006H7.24997L7.40062 12.6506C7.21542 12.9004 7.03686 13.1599 6.86414 13.4275L6.00135 13.2716V14.9418C6.00085 14.9426 6.00042 14.9435 6 14.9444V26H6.78223C7.77685 22.0692 10.7807 20.4863 13.9267 22.3954C15.7079 23.4764 17.8921 25.0294 20.2295 24.1357C20.1918 24.4689 20.0928 24.7924 19.9374 25.0896L23.9688 25.901C24.0953 25.5733 24.2049 25.2366 24.2912 24.9047C24.1408 25.0015 23.8535 25.1072 23.4549 25.0447C21.7085 24.7712 22.0532 22.76 23.4325 22.5751C23.894 22.5136 24.3268 22.7113 24.5978 23.0508L25.3709 21.4071C22.4914 21.6641 19.8906 20.1034 17.0213 20.7015C18.5209 21.0151 19.4307 21.7011 19.8859 22.4919C19.5865 22.5153 19.2858 22.5175 18.9861 22.4985L18.5289 22.0651L17.9528 22.3372C17.7033 22.2738 17.4587 22.1925 17.2208 22.0941L16.8944 21.44L16.4333 21.6924C16.1309 21.5072 15.8446 21.2944 15.5731 21.0556L15.4964 19.9245L14.6746 20.1372C14.3572 19.8146 14.034 19.5587 13.7074 19.3616L13.6532 18.5265L12.6437 18.9243C12.1485 18.8101 11.652 18.8134 11.1611 18.9137C13.031 15.0917 16.8296 15.0068 18.8064 16.1838C18.5854 16.424 18.3249 16.6217 18.0401 16.7665L20.8545 19.7647C21.1474 19.571 21.4308 19.3603 21.6936 19.1396C21.5148 19.131 21.0953 18.9278 20.9549 18.7988C19.4948 17.4568 21.2551 16.0989 22.345 16.7428C22.746 16.9797 22.9947 17.3727 23.0189 17.8065L24.4882 16.797C21.9929 15.3373 20.89 12.6767 18.2052 11.501C19.1816 12.5567 19.5459 13.5777 19.5147 14.4503C19.1371 14.1648 18.728 13.9386 18.2951 13.7658L17.7097 12.8673L16.9406 13.4064C16.7194 13.3745 16.4967 13.3533 16.2734 13.343L15.466 12.5779L14.8212 13.4103C14.4819 13.4564 14.1454 13.5208 13.813 13.6033L13.1471 13.0537L12.7348 13.9336C12.437 14.0424 12.1438 14.1637 11.8561 14.297L10.8585 13.9469L10.4938 15.0409C9.97527 15.3694 9.48043 15.7382 9.01913 16.1429C10.4764 10.3199 17.758 8.90544 21.4967 9.73301C21.4495 10.0185 21.3572 10.2946 21.2231 10.5509L25.2545 11.3623C25.381 11.0346 25.4907 10.698 25.5769 10.3659C25.4265 10.4628 25.2597 10.5913 25.0709 10.5655C23.1129 10.2987 23.2185 8.25158 24.7181 8.03645C25.1791 7.97006 25.6123 8.17146 25.8835 8.51086C25.9258 8.08025 25.9599 7.00331 25.976 6.56978C23.6364 6.77857 21.9297 5.98454 19.8331 6.00019Z" fill="#4F365F"/>
</g>
</svg>
